# AST/ASF file generated using VICON BodyLanguage
# -----------------------------------------------
:version 1.10
:name VICON
:units
  mass 1.0
  length 0.45
  angle deg
:documentation
   .ast/.asf automatically generated from VICON data using
   VICON BodyBuilder and BodyLanguage model FoxedUp or BRILLIANT.MOD
:root
   order TX TY TZ RX RY RZ
   axis XYZ
   position 0 0 0  
   orientation 0 0 0 
:bonedata
  begin
     id 1 
     name lhipjoint
     direction 0.650112 -0.723553 0.232005 
     length 2.45805 
     axis 0 0 0  XYZ
  end
  begin
     id 2 
     name lfemur
     direction 0.34202 -0.939693 0  
     length 7.00073  
     axis 0 0 20  XYZ
    dof rx ry rz
    limits (-160.0 20.0)
           (-70.0 70.0)
           (-60.0 70.0)
  end
  begin
     id 3 
     name ltibia
     direction 0.34202 -0.939693 0   
     length 7.8748   
     axis 0 0 20   XYZ
    dof rx
    limits (-10.0 170.0)
  end
  begin
     id 4 
     name lfoot
     direction 0.0542825 -0.14914 0.987325   
     length 1.75978   
     axis -90 7.62852e-016 20   XYZ
    dof rx rz
    limits (-45.0 90.0)
           (-70.0 20.0)
  end
  begin
     id 5 
     name ltoes
     direction 1.53509e-011 -4.21906e-011 1   
     length 0.893912   
     axis -90 7.62852e-016 20   XYZ
    dof rx
    limits (-90.0 20.0)
  end
  begin
     id 6 
     name rhipjoint
     direction -0.637897 -0.733345 0.235145   
     length 2.42522  
     axis 0 0 0  XYZ 
  end
  begin
     id 7 
     name rfemur
     direction -0.34202 -0.939693 0   
     length 7.02549   
     axis 0 0 -20   XYZ
    dof rx ry rz
    limits (-160.0 20.0)
           (-70.0 70.0)
           (-70.0 60.0)
  end
  begin
     id 8 
     name rtibia
     direction -0.34202 -0.939693 0   
     length 7.71512   
     axis 0 0 -20   XYZ
    dof rx
    limits (-10.0 170.0)
 end
 begin
     id 9 
     name rfoot
     direction -0.0822618 -0.226012 0.970645   
     length 1.90014  
     axis -90 -7.62852e-016 -20   XYZ
    dof rx rz
    limits (-45.0 90.0)
           (-20.0 70.0)
  end
  begin
     id 10 
     name rtoes
     direction -1.53542e-011 -4.21872e-011 1   
     length 0.957341   
     axis -90 -7.62852e-016 -20   XYZ
    dof rx
    limits (-90.0 20.0)
  end
  begin
     id 11 
     name lowerback
     direction -0.0022947 0.999774 -0.0211557   
     length 1.89909   
     axis 0 0 0   XYZ
    dof rx ry rz
    limits (-20.0 45.0)
           (-30.0 30.0)
           (-30.0 30.0)
  end
  begin
     id 12 
     name upperback
     direction 0.0107737 0.998635 0.0511027   
     length 1.8853   
     axis 0 0 0   XYZ
    dof rx ry rz
    limits (-20.0 45.0)
           (-30.0 30.0)
           (-30.0 30.0)
  end
  begin
     id 13 
     name thorax
     direction 0.011824 0.998136 0.0598754   
     length 1.88911   
     axis 0 0 0   XYZ
    dof rx ry rz
    limits (-20.0 45.0)
           (-30.0 30.0)
           (-30.0 30.0)
  end
  begin
     id 14 
     name lowerneck
     direction -0.0685355 0.990319 0.120714   
     length 1.91222   
     axis 0 0 0   XYZ
    dof rx ry rz
    limits (-20.0 45.0)
           (-30.0 30.0)
           (-30.0 30.0)
  end
  begin
     id 15 
     name upperneck
     direction 0.0886204 0.955665 -0.280805   
     length 1.92526   
     axis 0 0 0   XYZ
    dof rx ry rz
    limits (-20.0 45.0)
           (-30.0 30.0)
           (-30.0 30.0)
  end
  begin
     id 16
     name head
     direction 0.0233423 0.993502 -0.111393  
     length 1.96056  
     axis 0 0 0   XYZ
    dof rx ry rz
    limits (-20.0 45.0)
           (-30.0 30.0)
           (-30.0 30.0)
  end
  begin
     id 17 
     name lclavicle
     direction 0.941873 0.32922 0.0670041  
     length 3.31705  
     axis 0 0 0   XYZ
    dof ry rz
    limits (-20.0 10.0)
           (0.0 20.0)
  end
  begin
     id 18 
     name lhumerus
     direction 1 -4.4898e-011 3.38707e-028   
     length 5.29277   
     axis 180 -30 -90   XYZ
    dof rx ry rz
    limits (-60.0 90.0)
           (-90.0 90.0)
           (-90.0 90.0)
  end
  begin
     id 19
     name lradius
     direction 1 -4.48952e-011 1.63213e-028   
     length 2.85226   
     axis 180 -30 -90   XYZ
    dof rx
    limits (-10.0 170.0)
  end
  begin
     id 20
     name lwrist
     direction 1 -4.49001e-011 1.27856e-027   
     length 1.42613   
     axis -1.61767e-015 90 90   XYZ
    dof ry
    limits (-180.0 0.0)
 end
  begin
     id 21 
     name lhand
     direction 1 -4.48976e-011 2.55931e-027   
     length 0.602097   
     axis -1.63363e-015 90 90   XYZ
    dof rx rz
    limits (-90.0 90.0)
           (-45.0 45.0)
  end
  begin
     id 22 
     name lfingers
     direction 1 -4.48986e-011 5.11684e-027   
     length 0.485426   
     axis -3.26723e-015 90 90   XYZ
    dof rx
    limits (0.0 90.0)
  end
  begin
     id 23
     name lthumb
     direction 0.707107 -6.34915e-011 0.707107   
     length 0.696978   
     axis -90 45 -2.25915e-014   XYZ
    dof rx rz
    limits (-45.0 45.0)
           (-45.0 45.0)
  end
  begin
     id 24 
     name rclavicle
     direction -0.939974 0.327078 0.0973096   
     length 3.10337  
     axis 0 0 0   XYZ 
    dof ry rz
    limits (-10.0 20.0)
           (-20.0 0.0)
  end
  begin
     id 25 
     name rhumerus
     direction -1 -4.48975e-011 1.83745e-027  
     length 5.13304   
     axis 180 30 90   XYZ
    dof rx ry rz
    limits (-90.0 60.0)
           (-90.0 90.0)
           (-90.0 90.0)
  end
  begin
     id 26 
     name rradius
     direction -1 -4.48977e-011 7.1775e-029   
     length 2.74305   
     axis 180 30 90   XYZ
    dof rx
    limits (-10.0 170.0)
  end
  begin
     id 27 
     name rwrist
     direction -1 -4.48977e-011 1.27963e-027   
     length 1.37152   
     axis -1.61767e-015 -90 -90   XYZ
    dof ry
    limits (-180.0 0.0)
  end
  begin
     id 28
     name rhand
     direction -1 -4.4888e-011 2.56782e-027   
     length 0.767976   
     axis -1.63363e-015 -90 -90   XYZ
    dof rx rz
    limits (-90.0 90.0)
           (-45.0 45.0)
  end
  begin
     id 29
     name rfingers
     direction -1 -4.48947e-011 5.12384e-027   
     length 0.619162   
     axis -3.26723e-015 -90 -90   XYZ
    dof rx
    limits (0.0 90.0)
  end
  begin
     id 30
     name rthumb
     direction -0.707107 -6.34857e-011 0.707107   
     length 0.888997   
     axis -90 -45 2.25915e-014   XYZ
    dof rx rz
    limits (-45.0 45.0)
           (-45.0 45.0)
  end
:hierarchy
  begin
    root lhipjoint rhipjoint lowerback
    lhipjoint lfemur
    lfemur ltibia
    ltibia lfoot
    lfoot ltoes
    rhipjoint rfemur
    rfemur rtibia
    rtibia rfoot
    rfoot rtoes
    lowerback upperback
    upperback thorax
    thorax lowerneck lclavicle rclavicle
    lowerneck upperneck
    upperneck head
    lclavicle lhumerus
    lhumerus lradius
    lradius lwrist
    lwrist lhand lthumb
    lhand lfingers
    rclavicle rhumerus
    rhumerus rradius
    rradius rwrist
    rwrist rhand rthumb
    rhand rfingers
  end

#!OML:ASF F:\VICON\USERDATA\INSTALL\rory3\rory3.ASF
:FULLY-SPECIFIED
:DEGREES
588
root 0.172291 16.8844 0.0708151 2.03095 3.68186 0.619688
lowerback 3.10237 1.75663 -0.50822
upperback 1.33676 2.36457 4.51005
thorax -0.577061 1.17846 4.85167
lowerneck -12.2147 -12.6366 -15.8464
upperneck 26.32 -17.9607 12.0649
head 13.5375 -8.2151 4.23744
rclavicle -3.598e-014 -1.74931e-014
rhumerus 9.6816 73.0605 -89.2171
rradius 106.578
rwrist -22.0138
rhand -36.801 7.66134
rfingers 7.12502
rthumb -9.88264 -22.0867
lclavicle -3.598e-014 -1.74931e-014
lhumerus -39.1441 -15.3062 94.403
lradius 120.477
lwrist -3.04958
lhand -35.4588 28.9482
lfingers 7.12502
lthumb -8.58755 58.7536
rfemur -13.4777 1.50098 17.0045
rtibia 34.2114
rfoot -21.6454 -7.13405
rtoes -12.4476
lfemur -16.5049 -6.3873 -17.9891
ltibia 35.3133
lfoot -20.1107 -1.5024
ltoes -15.6912
589
root 0.173077 16.9187 0.0710929 2.25674 3.98822 0.582259
lowerback 2.91619 1.71947 -0.455081
upperback 1.21181 2.31808 4.56492
thorax -0.597428 1.1572 4.8842
lowerneck -12.3102 -12.6778 -15.9514
upperneck 26.4166 -17.9798 12.0146
head 13.6079 -8.23206 4.22516
rclavicle -2.54444e-014 2.06736e-014
rhumerus 11.99 71.6435 -87.5535
rradius 107.797
rwrist -21.5587
rhand -36.407 7.53932
rfingers 7.12502
rthumb -9.50248 -22.2264
lclavicle -2.54444e-014 2.06736e-014
lhumerus -36.4818 -15.4764 93.8437
lradius 121.617
lwrist -4.68403
lhand -33.8431 28.495
lfingers 7.12502
lthumb -7.02813 58.3583
rfemur -13.1831 1.75376 17.09
rtibia 33.3026
rfoot -21.2425 -7.6062
rtoes -11.9608
lfemur -16.4101 -6.82291 -17.9139
ltibia 34.5591
lfoot -19.673 -1.48429
ltoes -15.0684
590
root 0.176071 16.9509 0.0690893 2.5021 4.27901 0.460928
lowerback 2.89606 1.66908 -0.0310127
upperback 0.97309 2.269 4.41278
thorax -0.804876 1.13736 4.48275
lowerneck -12.3317 -12.6887 -15.8003
upperneck 26.5248 -18.056 12.0392
head 13.6571 -8.24556 4.1968
rclavicle 3.58806e-014 3.18055e-015
rhumerus 13.7739 70.1753 -86.7337
rradius 108.923
rwrist -21.2498
rhand -36.4768 7.16353
rfingers 7.12502
rthumb -9.56986 -22.5991
lclavicle 3.58806e-014 3.18055e-015
lhumerus -33.8038 -15.8488 92.9863
lradius 122.593
lwrist -5.76007
lhand -32.332 28.0762
lfingers 7.12502
lthumb -5.56927 57.983
rfemur -12.9379 2.03643 17.2612
rtibia 32.4038
rfoot -20.7988 -8.11075
rtoes -11.9053
lfemur -16.3545 -7.25176 -17.7459
ltibia 33.8252
lfoot -19.1554 -1.47195
ltoes -14.3821
591
root 0.178095 16.9801 0.0680123 2.71162 4.55525 0.296204
lowerback 3.03368 1.63448 0.722052
upperback 0.612045 2.25686 4.00268
thorax -1.20646 1.13409 3.62065
lowerneck -12.1774 -12.6595 -15.4076
upperneck 26.7058 -18.2324 12.2514
head 13.7135 -8.26687 4.19733
rclavicle 7.7526e-015 -1.27222e-014
rhumerus 14.5272 68.3647 -87.2463
rradius 109.869
rwrist -20.9815
rhand -36.2323 6.54959
rfingers 7.12502
rthumb -9.33397 -23.2238
lclavicle 7.7526e-015 -1.27222e-014
lhumerus -31.3885 -16.4757 91.9392
lradius 123.325
lwrist -6.87874
lhand -31.2829 27.9912
lfingers 7.12502
lthumb -4.5563 57.9222
rfemur -12.6596 2.283 17.4788
rtibia 31.5076
rfoot -20.3612 -8.57493
rtoes -11.6358
lfemur -16.2497 -7.60816 -17.5271
ltibia 33.1026
lfoot -18.7827 -1.36959
ltoes -14.7199
592
root 0.179632 17.0092 0.0698242 2.85711 4.84616 0.254882
lowerback 3.30429 1.63869 1.63661
upperback 0.113457 2.30898 3.27145
thorax -1.80668 1.15362 2.33208
lowerneck -11.709 -12.5647 -14.7254
upperneck 26.9556 -18.4702 12.5732
head 13.7236 -8.2898 4.20548
rclavicle -1.19271e-015 1.59028e-014
rhumerus 14.4664 66.201 -88.8532
rradius 110.603
rwrist -20.6853
rhand -35.7048 6.26465
rfingers 7.12502
rthumb -8.82497 -23.5308
lclavicle -1.19271e-015 1.59028e-014
lhumerus -29.1272 -17.4593 90.6636
lradius 123.959
lwrist -8.07527
lhand -30.404 28.1016
lfingers 7.12502
lthumb -3.70756 58.0491
rfemur -12.2934 2.4996 17.5618
rtibia 30.6087
rfoot -19.9259 -8.98298
rtoes -11.4688
lfemur -16.0571 -8.06697 -17.4542
ltibia 32.4014
lfoot -18.492 -1.05367
ltoes -15.9141
593
root 0.179831 17.0367 0.0717645 2.99569 5.20049 0.302186
lowerback 3.1963 1.57696 1.82618
upperback -0.125716 2.23355 3.02055
thorax -1.97225 1.11253 1.97048
lowerneck -11.4166 -12.4497 -14.5489
upperneck 27.0306 -18.4684 12.8053
head 13.7029 -8.26106 4.29152
rclavicle -1.5704e-014 1.59028e-015
rhumerus 15.3681 64.522 -88.8707
rradius 111.335
rwrist -20.5353
rhand -35.047 6.07577
rfingers 7.12502
rthumb -8.19015 -23.7455
lclavicle -1.5704e-014 1.59028e-015
lhumerus -26.3503 -18.023 90.0033
lradius 124.751
lwrist -8.84226
lhand -29.087 28.7568
lfingers 7.12502
lthumb -2.43573 58.7226
rfemur -11.8906 2.73389 17.5547
rtibia 29.7231
rfoot -19.5354 -9.48885
rtoes -11.5161
lfemur -15.8718 -8.59419 -17.4721
ltibia 31.7217
lfoot -18.1576 -0.851291
ltoes -16.2997
594
root 0.180149 17.0635 0.0709501 3.11057 5.55583 0.174722
lowerback 2.34917 1.42395 0.839389
upperback 0.199006 1.97378 3.95523
thorax -1.22485 0.994868 3.52902
lowerneck -11.706 -12.4466 -15.5168
upperneck 26.8688 -18.1035 12.6208
head 13.7208 -8.20311 4.4216
rclavicle 1.54058e-014 1.74931e-014
rhumerus 18.339 63.7971 -85.5638
rradius 112.134
rwrist -20.654
rhand -34.3808 5.81186
rfingers 7.12502
rthumb -7.54709 -24.0335
lclavicle 1.54058e-014 1.74931e-014
lhumerus -22.9463 -17.3659 90.7557
lradius 125.34
lwrist -9.85798
lhand -27.4199 29.3898
lfingers 7.12502
lthumb -0.825678 59.368
rfemur -11.5063 3.02521 17.7437
rtibia 28.875
rfoot -19.1578 -10.0139
rtoes -11.2785
lfemur -15.708 -9.12246 -17.2837
ltibia 31.0686
lfoot -17.9437 -0.772536
ltoes -15.7182
595
root 0.180104 17.0858 0.070761 3.18083 5.87524 0.0171126
lowerback 2.25094 1.342 1.04509
upperback 0.0757683 1.87074 3.9073
thorax -1.28234 0.942842 3.36789
lowerneck -11.7607 -12.4404 -15.422
upperneck 27.0338 -18.1497 12.659
head 13.8052 -8.20434 4.41369
rclavicle -4.57205e-015 4.92986e-014
rhumerus 19.3843 62.2957 -85.2679
rradius 112.717
rwrist -20.4997
rhand -33.59 5.95651
rfingers 7.12502
rthumb -6.78381 -23.9148
lclavicle -4.57205e-015 4.92986e-014
lhumerus -20.2578 -17.6155 90.3134
lradius 125.662
lwrist -10.8771
lhand -25.9495 29.4313
lfingers 7.12502
lthumb 0.594472 59.4102
rfemur -11.1116 3.28473 17.9728
rtibia 28.0783
rfoot -18.8203 -10.5243
rtoes -10.9462
lfemur -15.5176 -9.59616 -17.0692
ltibia 30.4353
lfoot -17.6727 -0.615046
ltoes -16.165
596
root 0.175273 17.1064 0.0713629 3.34903 6.18323 -0.0620974
lowerback 2.05894 1.26107 1.12956
upperback -0.0393871 1.76165 3.82551
thorax -1.28206 0.887993 3.24235
lowerneck -11.9089 -12.4534 -15.3191
upperneck 27.1489 -18.2253 12.7529
head 13.9003 -8.20732 4.41397
rclavicle 1.19271e-015 4.92986e-014
rhumerus 20.2595 60.8065 -85.1372
rradius 113.233
rwrist -20.266
rhand -33.0589 6.31798
rfingers 7.12502
rthumb -6.27106 -23.5692
lclavicle 1.19271e-015 4.92986e-014
lhumerus -17.523 -18.0579 89.908
lradius 125.669
lwrist -11.6284
lhand -25.2173 29.2077
lfingers 7.12502
lthumb 1.30169 59.1835
rfemur -10.8536 3.57485 18.1232
rtibia 27.3129
rfoot -18.4555 -11.0729
rtoes -10.4503
lfemur -15.4836 -10.0575 -16.9117
ltibia 29.8466
lfoot -17.2639 -0.271656
ltoes -17.9828
597
root 0.17226 17.1277 0.0726574 3.46717 6.47873 -0.0357459
lowerback 1.92044 1.14422 1.12753
upperback -0.127249 1.60322 3.74665
thorax -1.28455 0.808849 3.16895
lowerneck -12.0733 -12.4487 -15.3754
upperneck 27.2502 -18.2543 12.9112
head 14.0125 -8.19838 4.47354
rclavicle 4.57205e-015 3.18055e-015
rhumerus 21.0333 59.4643 -85.1017
rradius 113.688
rwrist -20.0103
rhand -32.8254 6.32957
rfingers 7.12502
rthumb -6.04566 -23.5642
lclavicle 4.57205e-015 3.18055e-015
lhumerus -14.8351 -18.4731 89.6469
lradius 125.523
lwrist -11.9156
lhand -24.8873 29.1525
lfingers 7.12502
lthumb 1.62043 59.1261
rfemur -10.5436 3.85454 18.1509
rtibia 26.6158
rfoot -18.1403 -11.5989
rtoes -10.1743
lfemur -15.3588 -10.5046 -16.8928
ltibia 29.2523
lfoot -16.8671 0.061471
ltoes -19.9037
598
root 0.178586 17.147 0.0723125 3.53166 6.80698 -0.0496348
lowerback 1.84147 0.885579 1.25814
upperback -0.221403 1.26234 3.76819
thorax -1.31841 0.637987 3.12892
lowerneck -12.2542 -12.3343 -15.701
upperneck 27.4341 -18.0497 13.0285
head 14.1481 -8.1192 4.61162
rclavicle 1.42131e-014 -3.18055e-015
rhumerus 22.1178 58.6189 -84.7192
rradius 114.02
rwrist -19.7252
rhand -32.5101 6.17827
rfingers 7.12502
rthumb -5.74124 -23.724
lclavicle 1.42131e-014 -3.18055e-015
lhumerus -12.4208 -18.3851 89.5682
lradius 125.209
lwrist -12.2085
lhand -24.7516 29.1205
lfingers 7.12502
lthumb 1.75149 59.093
rfemur -10.1979 3.90648 18.1805
rtibia 25.9801
rfoot -17.9068 -11.9614
rtoes -10.5086
lfemur -15.1334 -11.0713 -16.8628
ltibia 28.6165
lfoot -16.6322 0.15042
ltoes -19.145
